<?xml version="1.0"?><svg id="Layer_1" xmlns="http://www.w3.org/2000/svg" version="1.1" viewBox="0 0 1599.6 1055.4">
  <defs>
  </defs>
  <path class="st0" d="M327.3,688.2l-18.5,59.1-33.1,99.5c-3.1,9-8.4,16.2-15.9,21.6-6.7,4.7-12.9,7-18.5,7s-7.3-.3-9.2-.9l-49-126.6-4.7-15.3c-27,69.8-41.7,107.5-44,113.1-2.3,5.6-4.9,10.1-7.7,13.7-2.9,3.6-5.9,6.5-9.2,8.9-6.5,4.8-12.6,7.2-18.2,7.2s-8.1-.3-9.2-.9l-62.3-195.5c-.8-2.2-1.6-4.6-2.3-7.1-.7-2.5-1.5-4.8-2.4-7-2.1-5.1-4.4-8-6.9-8.7-2.4-.7-4.6-1.2-6.4-1.7-1.8-.5-3.5-1-4.9-1.8-3.2-1.5-4.7-3.6-4.7-6.3,0-4.5.8-7.8,2.3-10,2.4.8,7.5,1.2,15.2,1.2h64c11.6,0,17.5,3.9,17.5,11.8s-.8,6-2.4,7.8c-3.7-1-7.9-1.5-12.7-1.5-12.4,0-18.5,5-18.5,15s.5,6.7,1.5,10.4l45,155.6c8.1-20.4,14.2-36.3,18.4-47.8l37.5-107.2c1.3-4.3,4.6-7.7,9.8-10.3,4.5-2.3,9.7-3.4,15.8-3.2l59.4,168.4c12.9-40,21-66.1,24.5-78.4l16.5-58.9c4.3-16.1,6.4-26,6.4-29.5s-1.1-6.4-3.4-8.6c-2.3-2.1-5.1-3.5-8.3-4.2-3.2-.7-6-1.3-8.4-1.8-2.4-.6-4.4-1.2-6-2.1-3.3-1.6-4.9-4.4-4.9-8.3s.8-6.3,2.3-8.4c2.3.8,7.4,1.2,15.2,1.2h57.3c11.6,0,17.5,3.9,17.5,11.8s-.8,6-2.5,7.8c-3.9-1-7.2-1.5-10-1.5s-5.2,1-7.2,3-3.9,4.5-5.7,7.6c-2.9,5.1-5.7,12.4-8.4,21.7ZM389.8,616.2c-5.3,4.8-8,10.7-8,17.6s2.2,13,6.7,17.3c2.1,2,4.7,3.6,7.6,4.7,2.9,1.1,6.1,1.6,9.6,1.6,7.2,0,13.4-2.3,18.4-6.9,5.1-4.8,7.7-10.7,7.7-17.6s-2.1-13.2-6.4-17.5-10-6.4-17.1-6.4-13.3,2.4-18.4,7.2ZM457.3,864.9c0-3-.9-5.1-2.6-6.4-1-.7-2.4-1.4-4.2-1.9-1.8-.6-3.8-1-6-1.5-2.2-.4-4.1-.9-5.7-1.4-5.5-1.7-8.4-6.6-8.7-14.7v-122.3c0-10-1.1-17.2-3.4-21.7-1.4-2.8-3.5-4.9-6.2-6.6-2.7-1.6-6.9-2.5-12.5-2.5s-12.6,2-21,6c-3.9,1.7-7.4,3.8-10.6,6-3.2,2.3-5.6,4.5-7.1,6.6-1.5,2.1-1.9,4.5-1.2,7.3.8,3.1,2.1,4.5,4,4.3,3.1-.9,6.5-1.4,10.3-1.4s8.7,1.4,10.6,4.2c2,2.8,3,7.8,3,14.9v102.6c.2,12-4.4,18.1-13.9,18.1s-4.3-.4-6.7-1.2c-1.6,2-2.5,4.9-2.5,8.6,0,7.1,7.9,10.7,23.6,10.7h48.8c4.4,0,7.7.3,9.8.8,1.5-1.9,2.3-4.7,2.3-8.4ZM565.3,873.3c1.6-2,2.4-4.8,2.4-8.4s-.9-5.1-2.6-6.4c-1-.7-2.4-1.4-4.3-1.9-1.8-.6-3.9-1-6-1.5-2.2-.4-4.1-.9-5.7-1.4-5.5-1.8-8.4-6.7-8.7-14.7v-206.5c0-4.2-.2-8.2-.6-11.9-1.4-12.6-8-18.8-19.6-18.8s-22,4.1-33.2,12.4c-7.1,5.2-9.7,9.5-7.7,12.9.5.8,1.2,1.5,2.1,1.9.9.5,2.4.5,4.6,0,2.2-.5,4.5-.7,6.8-.7,5.2,0,9,1.6,11.3,4.9,1.4,1.9,2.1,6.5,2.1,13.6v191.7c-.3,10.7-4.9,16.1-13.8,16.1s-4.4-.4-6.9-1.2c-1.5,1.9-2.3,4.8-2.3,8.6,0,7.1,7.8,10.7,23.4,10.7h48.8c4.5,0,7.8.3,9.8.8ZM712.7,870.1c-4-3.5-6.5-9-7.5-16.7-15.8,14.8-33.2,22.2-52.2,22.2s-38-7.1-51.1-21.4c-14.3-15.7-21.4-37.4-21.4-65.1s9.9-56.4,29.7-75.9c18.5-18.2,40.3-27.3,65.5-27.3s19.8,1.7,29.1,5.1v-44.2c0-7.1-.7-11.7-2.1-13.6-2.3-3.3-6.2-4.9-11.5-4.9s-4.5.2-6.7.7c-2.2.5-3.7.5-4.6,0-.9-.5-1.6-1.1-2.1-1.9-2-3.4.5-7.7,7.7-12.9,11.2-8.3,22.3-12.4,33.2-12.4s18.1,6.3,19.8,18.8c.4,3.8.6,7.8.6,11.9v177.8c0,15.7.6,25.5,1.8,29.4,1.2,3.9,2.7,6.4,4.4,7.6,1.7,1.2,3.8,1.8,6.4,1.8s4.6-.4,6.3-1.2l4.6-2c1.3-.3,2.5.3,3.5,1.8,2.1,3.2,2.4,6,.9,8.6-1.5,2.6-3.8,5-6.9,7.3-3.1,2.3-6.5,4.4-10.3,6.1-16.5,7.4-28.9,7.6-37.1.5ZM704.7,722c-10-7.7-21.6-11.5-34.9-11.5s-28.8,5.9-38.7,17.6c-10.6,12.6-15.9,29.7-15.9,51.3,0,34.4,9.8,55.6,29.4,63.7,6.1,2.4,12.1,3.7,17.8,3.7s10.6-.5,14.5-1.4c3.9-.9,7.5-2.1,10.9-3.7,6.7-3.1,12.4-6.8,17-11.2v-108.5ZM958,636.3l-54.5,1.5h-38c-1.5,0-3.2-.3-5.1-.8-1.6,1.6-2.5,4.8-2.5,9.5s1.1,4.1,3.2,6,6.7,3.5,13.8,4.9c11.2,2.3,16.8,8.3,16.8,17.8v153.7c0,9.5-1.5,16.3-4.6,20.4-1.5,1.9-3.3,3.3-5.4,4.1-2,.8-4.9,1.1-8.4,1.1s-7.3-.5-11.2-1.5c-1.5,1.9-2.3,4.5-2.3,7.8s1.6,7.6,4.7,9.3c3.2,1.7,7.4,2.5,12.7,2.5h78.7c7.8,0,12.8.4,15.2,1.2,1.6-2,2.4-5,2.4-8.9s-.4-3.4-1.2-4.7c-.8-1.3-2.6-2.6-5.2-3.9-2.7-1.3-9.4-2.8-20.4-4.3-12.1-1.7-18.5-6.6-19-14.5v-153c0-11.5,1.5-19.2,4.6-23,3.3-4.3,9.9-6.4,19.8-6.4,24.5,0,42,6,52.7,18.1,4.8,5.5,8.1,11.8,10,18.9,1.8,7.1,2.8,14.9,2.8,23.3s-1.2,16.4-3.7,23.9c-8.1,23.7-31.3,35.1-69.7,34.3-4.4,1-6.6,5.6-6.6,13.6s1.4,5.5,4.3,5.5h5.8c26.8,0,48.9-4.5,66.1-13.5,8-4.2,14.6-9.1,19.9-14.6,5.3-5.6,9.6-11.5,12.8-17.8,3.2-6.3,5.5-12.7,6.8-19.4,1.3-6.6,2-14.6,2-24s-2.3-18.8-6.9-28.2c-12.7-26-42.9-39-90.6-39ZM1201,781.9l-106.9,2.3c.6,22.2,6.3,38.5,17.1,49.1,9.2,9,21.1,13.5,35.7,13.5,21.7,0,39.4-4.5,53-13.6.9,0,2,.8,3.4,2.3,2.6,3.1,3.8,5.7,3.8,8,0,4.9-6.1,11.2-18.4,18.8-14.1,8.8-30.5,13.2-49.3,13.2s-43.7-7.8-57.7-23.4c-13.8-15.3-20.7-35.9-20.7-61.9s1.3-23.3,3.8-32.9c2.6-9.6,6-18.2,10.3-25.8,4.3-7.6,9.4-14.3,15.3-20,5.9-5.7,12.2-10.5,18.9-14.2,13.3-7.6,26.3-11.3,39.2-11.3s23.2,2.3,30.9,6.8c7.8,4.5,14.1,10.6,19,18.1,9.1,14.4,13.6,33.5,13.6,57.4s-3.7,13.4-11.2,13.6ZM1142.1,710.1c-13.2,0-23.9,5.1-32.3,15.3-7.7,9.4-12.6,22.4-14.7,39,29.4-1.4,56.3-3.3,80.7-5.7,1.1-32.5-10.1-48.7-33.7-48.7ZM1396.9,847.8c1.1,1.7,1.6,3.2,1.6,4.4s-.5,2.9-1.6,5c-1.1,2-3.1,4.2-6,6.5-2.9,2.3-6.2,4.3-9.9,6-20.3,9.6-34.1,7.3-41.5-6.7-1.5-2.8-2.6-6.1-3.2-10-14.9,14.9-32.9,22.4-54,22.4s-29.4-4.7-39.2-14.1c-9.9-9.5-14.9-21.8-14.9-36.9s8.4-32.9,25.1-42.3c15.1-8.6,36.4-12.9,63.8-12.9h19.1c.1-3.9.2-7.7.2-11.3v-11.5c0-13.7-2-23.3-6-28.9-4.5-6.3-12.1-9.5-23-9.5-24.8,0-37.6,8.9-38.3,26.6-.1,2.8,0,5.1.2,6.9-2,1.6-5.5,2.5-10.3,2.5s-8.4-.6-10.6-1.7c-2.2-1.1-4.1-2.7-5.7-4.6-3.5-4-5.2-9.1-5.2-15.2s1.8-11.6,5.4-16.2c3.6-4.6,8.5-8.4,14.8-11.4,12.1-6,26.5-9,43-9s29,1.6,37.3,4.8c8.3,3.2,14.9,7.5,19.8,12.8,8.7,9.4,13,22,13,37.8l-1.5,73.5c0,13.4.6,21.8,1.9,25.4,1.3,3.6,2.8,6,4.6,7.2,1.8,1.2,4,1.8,6.6,1.8s4.7-.4,6.4-1.2l4.3-2c1.4-.5,2.7,0,3.8,1.8ZM1336.2,789.2c-21.2.8-35.6,2.2-43.3,4.1-7.6,1.9-13.1,3.7-16.5,5.4-3.4,1.7-6,3.8-8,6.1-3.2,3.9-4.7,9.7-4.7,17.5s2.8,14,8.3,18.7c5.5,4.6,13.4,7,23.7,7,14.6,0,28-5,40.1-15,0-14.7.1-29.3.3-43.8ZM1490.4,858.4c-.9-.7-2.2-1.4-3.8-1.9-1.6-.6-3.4-1-5.4-1.5-2-.4-3.7-.9-5.1-1.5-5.1-1.9-7.7-7.1-7.7-15.6v-205.5c0-10-1.1-17.2-3.4-21.7-1.3-2.8-3.3-4.9-6-6.6-2.7-1.6-6.8-2.5-12.4-2.5s-12.2,2-19.8,6c-3.6,1.7-6.8,3.8-9.8,6.1-3,2.3-5.2,4.6-6.8,6.7-1.6,2.1-1.7,4.2-.4,6.2.5.8,1.2,1.5,2.1,1.9.9.5,2.1.5,3.8.2,1.7-.4,3.3-.5,5-.5,5.4,0,9.2,1.6,11.3,4.9,1.4,2,2.1,6.6,2.1,13.6v189.7c.1,6.9-.6,11.7-2.1,14.2-1.5,2.6-3.9,3.8-7,3.8s-6-.4-8.4-1.2c-1.6,2-2.5,5.2-2.5,9.5s.6,3.3,1.7,4.6c2.8,3.5,9,5.2,18.8,5.2h45.9c4.5,0,7.8.3,9.8.8,1.6-2,2.5-4.8,2.5-8.4s-.8-5.1-2.3-6.4ZM1597.6,846c-1.3-.8-2.4-1.2-3.2-1.1-.8.1-2.1.7-3.9,1.8-1.8,1.1-5.5,1.7-11.1,1.7s-17-9.6-30.5-28.9l-16.1-22.7c-6.8-9.6-13.5-17.4-20.1-23.4,9.7-6,19.3-13.3,28.9-21.7,24.8-21.7,37.2-38.8,37.2-51.1s-8-14.7-23.9-14.7-14.1,1.4-20.7,4.1c-3.1,1.2-5.6,2.7-7.6,4.5-2,1.8-3,3.6-3,5.4s.5,3.6,1.5,5.2c8.2.6,12.2,3,12.2,7,0,5.8-3.9,13.1-11.6,21.7-4,4.5-11.2,10.7-21.7,18.5l-24.6,17.6-4.4,2.4c-1.4.8,0,2.7,4.3,5.7,7.4,5.3,16.2,16.8,26.5,34.6l12.7,21.7c4.3,7.5,8.8,14.2,13.6,20.3,4.8,6.1,10,11,15.5,14.9,5.5,3.8,12.3,5.7,20.4,5.7s15.6-3.2,22.5-9.6c2.9-2.7,5.1-5.4,6.7-8.3,1.6-2.9,2.4-5.3,2.4-7.3s-.7-3.3-2-4.1ZM83,498.5c28.7,2.1,74.3-1.7,103-39.2,44.6-58.2,158.8-148.8,170.8-157.6,4.8-3.5,12-8.1,18.9-11.4.3-.1.6-.3.9-.4.1,0,.3-.1.4-.2.5-.2.9-.4,1.4-.6.2,0,.3-.1.5-.2,10-3.3,16.5,9.4,16.5,9.4h0c3.6,15.6,24.3,39.9,39.4,97.6,10.8,41.3-10.1,70-26.7,85.4-5.1,4.7-1.6,13.2,5.3,13.2h221.5c.4,0,2.2.1,4.8,0,4.2-.2,10.8-.9,18.1-3.5,2.4-.9,4.9-1.9,7.4-3.3,6.4-3.4,13.1-8.4,19-15.9.6-.8,1.3-1.6,1.9-2.5.2-.3.4-.6.6-1,16-22.7,23.1-48.5,26.1-68.1,1.1-6.8-7.6-10.6-12-5.2-18.2,21.9-46.8,34.6-67.7,41.4-4.1,1.2-14.7,3.1-23.1-4.8l-88.1-82.8c-7.2-14.7,3.7-19.3,3.7-19.3,0,0,0,0,0,0,63.3-31.7,177.1-137.2,214.2-172.3,0,0,0,0,0,0,11.6-10.9,17.9-7.8,19.9-6.2,18,17.3,18.8,62,2,86.9-19,28.2,2.8,27.5,2.8,27.5,18.3-7.4,93-122.3,128.9-176.5h0c2.2-3.4,4.3-6.5,6.2-9.4,16-18.5,33.1-6.3,33.1-6.3l21.7,18.8h0c47.4,52.2,210.6,118.5,93.2,214.6-103.2,84.6-84.2,149.5-67.6,177.4,5.5,9.2,15.3,14.8,26,14.8h522.4c9,0,12-12,4.1-16.3-5-2.7-9.9-5.5-14.6-8.5-107.8-80.4-379.7-324.4-379.7-324.4,0,0-90.1-75.7-140.8-125s-87.3-9.9-87.3-9.9l-119,91.5c-50-23.2-104.8,42.3-104.8,42.3-1.2,1.1-2.3,2.1-3.2,3h0c-4.1,4-6.2,6.7-6.2,6.7-145.9,147.8-207.6,141-207.6,141l-57.5-54s-17.4-17.5-41.8-8.1c-24.4,9.4-93.9,84.5-174.6,161.4-49.9,47.6-91.2,72.9-115.4,85.3-6.9,3.5-4.7,13.9,3,14.4ZM514,190.4c19.4-51.3,58.1-63.8,58.1-63.8,0,0-38.7-12.5-58.1-63.8-19.4,51.3-58.1,63.8-58.1,63.8,0,0,38.7,12.5,58.1,63.8ZM266.2,998.4h-49.2v-42h-12.9v97.7h12.9v-45.1h49.2v45.1h12.9v-97.7h-12.9v42ZM396.9,977.2c3.2,7.2,4.8,15.5,4.8,25.1v6.2c0,9.6-1.6,17.9-4.8,25.1-3.2,7.1-7.8,12.6-13.7,16.3-5.9,3.8-12.8,5.6-20.7,5.6s-14.5-1.9-20.5-5.7c-5.9-3.8-10.6-9.2-13.9-16.2-3.3-7-5-15.1-5.1-24.3v-7c0-9.4,1.6-17.7,4.9-24.9,3.3-7.2,7.9-12.7,13.9-16.5,6-3.8,12.8-5.7,20.5-5.7s14.7,1.9,20.7,5.7c6,3.8,10.6,9.3,13.8,16.4ZM388.9,1002.1c0-11.6-2.3-20.5-7-26.7-4.7-6.2-11.2-9.3-19.5-9.3s-14.5,3.1-19.2,9.3c-4.7,6.2-7.1,14.8-7.2,25.8v7.2c0,11.2,2.4,20,7.1,26.5,4.7,6.4,11.2,9.6,19.5,9.6s14.8-3,19.3-9.1c4.6-6.1,6.9-14.7,7-26.1v-7.2ZM458.6,956.4h-12.9v97.7h59.2v-10.5h-46.3v-87.1ZM610,978.1c3.6,6.9,5.4,14.9,5.4,23.9v6.2c0,9.2-1.8,17.3-5.3,24.2-3.6,6.9-8.6,12.3-15.2,16-6.6,3.7-14.3,5.6-23,5.7h-27v-97.7h27.6c8.5,0,16,1.9,22.5,5.6,6.5,3.8,11.6,9.1,15.1,16ZM602.7,1002.2c0-11.1-2.6-19.7-7.8-25.9-5.2-6.2-12.6-9.3-22.2-9.4h-15v76.6h13.6c9.9,0,17.7-3.1,23.2-9.3,5.5-6.2,8.3-15,8.3-26.4v-5.7ZM659.6,1054.1h12.9v-97.7h-12.9v97.7ZM782.5,1032l-49.3-75.6h-12.9v97.7h12.9v-75.3l49.2,75.3h12.9v-97.7h-12.8v75.6ZM859.2,974.7c4.5-6.1,11-9.1,19.6-9.1,13,0,20.7,6.5,23.1,19.5h12.9c-1.4-9.6-5.2-17-11.4-22.2-6.2-5.2-14.4-7.8-24.6-7.8s-22.1,4-28.9,12.1c-6.9,8.1-10.3,19.5-10.3,34.2v8.5c0,9.1,1.8,17.1,5.2,24,3.4,6.9,8.2,12.2,14.3,15.9,6.2,3.7,13.2,5.6,21.2,5.6s14.8-1.2,20.7-3.5c5.9-2.3,10.5-5.9,13.9-10.6v-35.8h-35.4v10.5h22.6v21.9c-2.4,2.5-5.4,4.4-9,5.4s-7.8,1.6-12.7,1.6c-8.5,0-15.3-3.2-20.3-9.7-5-6.5-7.5-15.2-7.5-26.2v-8c0-11.5,2.3-20.3,6.7-26.4ZM1012.4,1006.7c-4.6-2.8-10.9-5.3-19.1-7.6-8.1-2.3-13.9-4.8-17.2-7.6-3.4-2.8-5.1-6.1-5.1-10.1s1.8-8.9,5.3-11.7c3.6-2.8,8.5-4.2,14.9-4.2s12.1,1.7,15.9,5.1c3.8,3.4,5.6,8,5.6,14h12.9c0-5.4-1.4-10.4-4.3-15-2.9-4.6-7-8.1-12.2-10.7-5.3-2.6-11.2-3.9-17.9-3.9-9.8,0-17.8,2.5-24,7.5-6.1,5-9.2,11.4-9.2,19.1s2.5,12.5,7.5,17.1,13.1,8.5,24.1,11.7c8.8,2.5,14.9,5.1,18.2,7.7,3.4,2.6,5,6.3,5,11.1s-1.8,8.6-5.4,11.3c-3.6,2.8-8.8,4.2-15.6,4.2s-13.1-1.7-17.5-5.1c-4.4-3.4-6.5-8.1-6.5-14h-12.9c0,5.7,1.6,10.8,4.7,15.2,3.2,4.5,7.6,8,13.5,10.6,5.8,2.6,12.1,3.9,18.8,3.9,10.3,0,18.6-2.4,24.8-7.1,6.2-4.8,9.3-11.1,9.3-19s-1.1-9.3-3.3-12.9c-2.2-3.7-5.6-6.9-10.2-9.6ZM1144.3,956.4h-12.9v97.7h59.2v-10.5h-46.3v-87.1ZM1209.6,966.9h31.3v87.1h12.8v-87.1h31.4v-10.5h-75.5v10.5ZM1390.2,978.1c3.6,6.9,5.4,14.9,5.4,23.9v6.2c0,9.2-1.8,17.3-5.3,24.2-3.6,6.9-8.6,12.3-15.2,16-6.6,3.7-14.3,5.6-23,5.7h-27v-97.7h27.6c8.5,0,16,1.9,22.5,5.6,6.5,3.8,11.6,9.1,15.1,16ZM1382.8,1002.2c0-11.1-2.6-19.7-7.8-25.9-5.2-6.2-12.6-9.3-22.2-9.4h-15v76.6h13.6c9.9,0,17.7-3.1,23.2-9.3,5.5-6.2,8.3-15,8.3-26.4v-5.7Z"></path>
</svg>
